<svg width="32" height="32" viewBox="0 0 32 32" fill="none" xmlns="http://www.w3.org/2000/svg">
<rect width="32" height="32" rx="16" fill="white"/>
<path d="M14.0813 6.8625L11.25 8.28125V9V9.725L10.2938 9.48125L9.3375 9.2375L6.45 10.6812L3.5625 12.125V15.9687V19.8125L10.2813 23.1687L17 26.5312L19.875 25.0937L22.75 23.6562V22.7062C22.75 22.1812 22.7625 21.75 22.7813 21.75C22.8 21.75 23.2375 21.9625 23.75 22.2187L24.6875 22.6875L27.5625 21.25L30.4375 19.8125V19.325V18.8437L23.7313 12.1375C20.05 8.45625 17 5.4375 16.9688 5.44375C16.9313 5.44375 15.6313 6.08125 14.0813 6.8625ZM22.775 13.1187L28.5188 18.8625L26.6063 19.825L24.6875 20.7812L20.8438 16.9375L17 13.0937V14.5187C17 15.4687 16.9813 15.9375 16.9313 15.9375C16.9 15.9375 16.475 15.8375 16 15.7187C15.3625 15.5562 14.9938 15.5 14.6313 15.5H14.125V15.7312C14.125 15.9625 14.2438 16.0875 17.4813 19.325C19.325 21.1687 20.825 22.6937 20.8125 22.7062C20.7938 22.725 19.9375 23.1562 18.9 23.675L17.0188 24.6125L11.2625 18.8562L5.5 13.0937L7.425 12.1312L9.35625 11.1687L11.1625 11.6187C12.1563 11.8625 13.0188 12.0812 13.0813 12.1C13.1813 12.1312 13.1875 12.0375 13.1875 10.6937V9.25L15.05 8.31875C16.0688 7.8 16.9375 7.38125 16.9688 7.38125C17.0063 7.375 19.6188 9.9625 22.775 13.1187Z" fill="black"/>
</svg>
