<svg width="49" height="49" viewBox="0 0 49 49" fill="none" xmlns="http://www.w3.org/2000/svg">
<path d="M19.9549 10.6268L15.708 12.7549V13.833V14.9205L14.2736 14.5549L12.8393 14.1893L8.50801 16.3549L4.17676 18.5205V24.2861V30.0518L14.2549 35.0861L24.333 40.1299L28.6455 37.9736L32.958 35.8174V34.3924C32.958 33.6049 32.9768 32.958 33.0049 32.958C33.033 32.958 33.6893 33.2768 34.458 33.6611L35.8643 34.3643L40.1768 32.208L44.4893 30.0518V29.3205V28.5986L34.4299 18.5393C28.908 13.0174 24.333 8.48926 24.2861 8.49863C24.2299 8.49863 22.2799 9.45488 19.9549 10.6268ZM32.9955 20.0111L41.6111 28.6268L38.7424 30.0705L35.8643 31.5049L30.0986 25.7393L24.333 19.9736V22.1111C24.333 23.5361 24.3049 24.2393 24.2299 24.2393C24.183 24.2393 23.5455 24.0893 22.833 23.9111C21.8768 23.6674 21.3236 23.583 20.7799 23.583H20.0205V23.9299C20.0205 24.2768 20.1986 24.4643 25.0549 29.3205C27.8205 32.0861 30.0705 34.3736 30.0518 34.3924C30.0236 34.4205 28.7393 35.0674 27.183 35.8455L24.3611 37.2518L15.7268 28.6174L7.08301 19.9736L9.97051 18.5299L12.8674 17.0861L15.5768 17.7611C17.0674 18.1268 18.3611 18.4549 18.4549 18.483C18.6049 18.5299 18.6143 18.3893 18.6143 16.3736V14.208L21.408 12.8111C22.9361 12.033 24.2393 11.4049 24.2861 11.4049C24.3424 11.3955 28.2611 15.2768 32.9955 20.0111Z" fill="black"/>
</svg>
